<?xml version="1.0" standalone="no"?><!DOCTYPE svg PUBLIC "-//W3C//DTD SVG 1.1//EN" "http://www.w3.org/Graphics/SVG/1.1/DTD/svg11.dtd"><svg t="1562427433590" class="icon" viewBox="0 0 1024 1024" version="1.1" xmlns="http://www.w3.org/2000/svg" p-id="5399" xmlns:xlink="http://www.w3.org/1999/xlink" width="48" height="48"><defs><style type="text/css"></style></defs><path d="M221.009 169.968c-0.207 0-0.207 0-0.42 0.207-3.749 1.665-7.289 4.372-9.999 7.707l-174.736 213.055c-5.627 6.871-7.915 15.203-7.084 23.327h295.943l-103.714-244.293z" fill="#3DB0EA" p-id="5400"></path><path d="M219.762 166.845l1.25 3.121c-0.207 0-0.207 0-0.42 0.207l-0.833-3.329z" fill="#3DB0EA" p-id="5401"></path><path d="M324.726 414.261h-295.943c0.622 7.497 4.167 14.996 10.208 20.41l481.507 441.522-195.77-461.932z" fill="#1E87D6" p-id="5402"></path><path d="M819.477 170.052c-4.58-2.29-9.789-3.539-14.996-3.539h-284.281v0.332h-286.070c-4.58 0-9.164 1.040-13.121 3.121l103.714 244.293h195.77v-0.332h195.479l103.507-243.877z" fill="#2EB9EF" p-id="5403"></path><path d="M1003.793 389.148l-172.439-209.93c-3.121-3.749-6.871-6.666-11.246-8.955-0.207 0-0.42-0.207-0.622-0.207l-103.507 243.877h295.111c0.132-1.122 0.208-2.41 0.208-3.725 0-8.016-2.832-15.367-7.542-21.118z" fill="#3DB0EA" p-id="5404"></path><path d="M820.934 166.51l-1.457 3.539c0.207 0 0.42 0.207 0.622 0.207l0.833-3.749zM520.495 875.194l195.479-461.267h-195.77v0.332h-195.479l195.479 461.267v0.332l0.084-0.167 0.207 0.499z" fill="#3DB0EA" p-id="5405"></path><path d="M759.914 413.928h-43.943l-195.77 461.932 480.258-440.273c6.458-5.829 9.999-13.746 10.62-21.66h-251.167z" fill="#1E87D6" p-id="5406"></path><path d="M522.597 692.71c-0.001 0-0.002 0-0.002 0-21.724 0-40.336-13.301-48.144-32.207l-104.511-258.638c-28.714-0.053-51.971-23.345-51.971-52.066 0-28.756 23.309-52.066 52.066-52.066 0.031 0 0.065 0 0.098 0h34.921c21.226 0 40.323 12.895 48.274 32.55l68.893 170.464 84.784-213.158c7.87-19.391 26.56-32.818 48.384-32.823h34.922c0.061 0 0.133 0 0.207 0 28.756 0 52.066 23.309 52.066 52.066 0 28.684-23.193 51.948-51.847 52.066l-119.764 300.985c-7.851 19.361-26.489 32.773-48.261 32.823h-0.116z" fill="#FFE812" p-id="5407"></path></svg>